<?xml version="1.0" encoding="UTF-8"?>
<svg version="1.1" xmlns="http://www.w3.org/2000/svg" width="512" height="512">
<path d="M0 0 C1.11955078 -0.02791626 1.11955078 -0.02791626 2.26171875 -0.05639648 C17.97080728 0.11766076 33.14890994 8.94172424 47.1875 15.125 C50.77643557 16.69613048 54.36648667 18.26469314 57.95657349 19.83319092 C60.36909683 20.88743735 62.78126729 21.94249168 65.19308472 22.99835205 C74.77970399 27.19390082 84.38984978 31.33191343 94.01452637 35.43927002 C110.51560892 42.48146622 126.98265397 49.60049403 143.4375 56.75 C161.13594201 64.43972424 178.84217531 72.11082556 196.5625 79.75 C198.1437114 80.43168243 198.1437114 80.43168243 199.75686646 81.12713623 C203.95209104 82.93568169 208.14736445 84.74411379 212.34272766 86.55233765 C223.02209565 91.15539054 233.69886611 95.76445189 244.375 100.375 C245.28218781 100.76675415 246.18937561 101.1585083 247.12405396 101.56213379 C260.16836342 107.19525893 273.21059227 112.83318376 286.25161743 118.47390747 C304.45998976 126.34957606 322.67360356 134.21309871 340.88720703 142.07666016 C345.51860967 144.07624827 350.14994694 146.07598773 354.78120422 148.07591248 C356.61302317 148.86690739 358.44488154 149.65781101 360.27677917 150.44862366 C364.82664696 152.41290102 369.375827 154.37874051 373.92358398 156.34790039 C382.47780354 160.04987383 391.03803908 163.73563101 399.62139893 167.36962891 C403.65487698 169.07838906 407.6847379 170.79558698 411.71435547 172.51342773 C413.62793382 173.32640159 415.54325726 174.13528221 417.46044922 174.93969727 C435.89223463 182.6754271 450.14209126 190.42456185 458.5 209.5 C460.38014027 215.54508677 460.85450165 221.06335273 460.8125 227.375 C460.80404053 228.70325806 460.80404053 228.70325806 460.79541016 230.05834961 C460.67899618 236.31070245 460.16402637 241.76830691 457.5 247.5 C457.0978125 248.3971875 456.695625 249.294375 456.28125 250.21875 C447.71798386 267.53557708 431.5637097 274.33440425 414.67877197 281.40426636 C411.01577471 282.93838413 407.36071725 284.49103473 403.70507812 286.04258728 C401.73375113 286.87924438 399.76206419 287.71505384 397.79003906 288.55006409 C386.99661897 293.12444665 376.24553778 297.79543378 365.49578857 302.47131348 C359.85617182 304.92436857 354.21516762 307.37422885 348.57421875 309.82421875 C347.46850525 310.30452545 346.36279175 310.78483215 345.22357178 311.2796936 C334.46770858 315.95074159 323.70402012 320.60357693 312.9375 325.25 C312.04613342 325.63469452 311.15476685 326.01938904 310.23638916 326.41574097 C305.77604806 328.34060951 301.31555184 330.26511826 296.85498047 332.18945312 C288.65607803 335.72675656 280.45860236 339.26736436 272.26098633 342.80764771 C268.58292172 344.39604702 264.90478763 345.98428543 261.22665405 347.57252502 C253.96091502 350.70991724 246.69525721 353.84749741 239.42976379 356.98545837 C234.93237236 358.92787467 230.4349453 360.87020844 225.9375 362.8125 C225.04360565 363.19854401 224.1497113 363.58458801 223.22872925 363.98233032 C209.10432259 370.08199194 194.97771956 376.17655198 180.85040283 382.26947021 C163.6097648 389.70513346 146.37150172 397.1462041 129.13916016 404.60107422 C115.56948044 410.47128991 101.99697443 416.33495472 88.421875 422.19262695 C79.75318786 425.93356291 71.08591716 429.67765481 62.42424011 433.43479919 C58.43119918 435.16663343 54.43732326 436.89653732 50.44338989 438.62631226 C48.55110777 439.44649962 46.65922857 440.26761735 44.76779175 441.0897522 C2.05135257 459.65558829 2.05135257 459.65558829 -19.57421875 451.82421875 C-34.13281588 445.23494715 -43.87478351 434.93628389 -49.875 420.1875 C-51.63490069 414.47152003 -51.92103293 408.93674419 -52 403 C-52.02779541 401.71935669 -52.02779541 401.71935669 -52.05615234 400.4128418 C-51.92824536 387.21710477 -45.49266159 376.00191789 -39.5 364.625 C-38.72992755 363.14741735 -37.96040287 361.6695491 -37.19140625 360.19140625 C-32.60102104 351.39099446 -27.90248671 342.65366059 -23.09960938 333.96728516 C-18.56740844 325.72928934 -14.28483327 317.3682709 -10 309 C-4.64975036 298.55230563 0.75579038 288.14899938 6.45166016 277.88378906 C8.72851359 273.7779878 10.94193417 269.66191491 13.0234375 265.453125 C13.42240234 264.65777344 13.82136719 263.86242187 14.23242188 263.04296875 C14.9666706 261.56945081 15.68552569 260.08810579 16.38476562 258.59765625 C17.92200942 255.53539327 18.89461789 253.76232111 22.09467506 252.37568855 C26.09813841 251.34618708 30.01523083 250.80201974 34.11801147 250.34835815 C35.39976963 250.19878699 35.39976963 250.19878699 36.7074219 250.0461942 C39.56257734 249.71460424 42.41869666 249.39223257 45.27490234 249.06982422 C47.32508633 248.83363349 49.37520487 248.59687402 51.42526245 248.35958862 C56.98606118 247.71758282 62.54774219 247.08353899 68.10961485 246.45091391 C73.92375574 245.78822624 79.73705408 245.11822927 85.55044556 244.44900513 C96.55693944 243.18308947 107.56417595 241.9237551 118.57169402 240.66677964 C131.1042235 239.23533511 143.63590814 237.7965616 156.16752696 236.35716987 C181.94408577 233.39662024 207.72169259 230.44528242 233.5 227.5 C232.43355444 227.37723222 231.36710888 227.25446444 230.26834679 227.12797642 C204.32915167 224.14182053 178.39015829 221.15391733 152.45137596 218.16417789 C139.90762028 216.71840857 127.36379948 215.27320876 114.81982422 213.8293457 C103.8875468 212.57099422 92.95539263 211.31157822 82.02338564 210.05087942 C76.23405759 209.38328143 70.44466887 208.71621962 64.65513229 208.05043221 C59.20665168 207.42384864 53.75833691 206.79584261 48.31014633 206.16674232 C46.30993188 205.93603305 44.30965725 205.70584481 42.30931854 205.47621536 C39.57871876 205.16267656 36.84834149 204.84726543 34.11801147 204.53138733 C33.32617128 204.44091741 32.53433108 204.35044749 31.71849573 204.25723606 C30.28371025 204.09049041 28.8495685 203.91805424 27.41632724 203.73851883 C25.64676729 203.51826763 23.8739679 203.32447468 22.10105324 203.13309383 C19.5 202.5 19.5 202.5 17.26513672 199.33911133 C16.54773044 197.93120574 15.85405391 196.51105185 15.1796875 195.08203125 C14.79917236 194.32216415 14.41865723 193.56229706 14.02661133 192.77940369 C12.78959558 190.29972049 11.5828659 187.80649242 10.375 185.3125 C9.5222481 183.59345721 8.66692898 181.87568559 7.80908203 180.15917969 C6.53165607 177.60296192 5.25549115 175.04624406 3.98727417 172.48544312 C0.93242195 166.32058871 -2.26831229 160.25635889 -5.625 154.25 C-11.0025747 144.55568729 -16.05762562 134.70573778 -21.10626221 124.83770752 C-25.61497028 116.02881694 -30.20316897 107.28171975 -35 98.625 C-38.73798048 91.85931857 -42.29604309 85.03946148 -45.625 78.0625 C-45.99173828 77.2988916 -46.35847656 76.5352832 -46.73632812 75.74853516 C-52.61267147 63.19529501 -53.69704485 48.87827622 -49.9375 35.4375 C-44.82351383 21.41005201 -35.59903966 11.40863189 -22.5 4.5 C-15.14103692 1.16393674 -7.99514593 0.12671732 0 0 Z " fill="#40A5EE" transform="translate(51.5,28.5)"/>
</svg>
